<svg width="50" height="50" viewBox="0 0 50 50" fill="none" xmlns="http://www.w3.org/2000/svg">
<circle cx="25" cy="25" r="24" fill="url(#paint0_linear_25_14)" stroke="url(#paint1_linear_25_14)" stroke-width="2"/>
<path d="M14.24 41.6C14.08 41.6 13.84 41.5333 13.52 41.4C13.2267 41.2933 13.0133 41.24 12.88 41.24C12.9067 41.24 12.8533 41.28 12.72 41.36L12.56 41.28C11.1733 40.5867 10.1467 39.7067 9.48 38.64C8.81333 37.5733 8.48 36.3867 8.48 35.08C8.48 33.8533 8.89333 32.8533 9.72 32.08C10.5733 31.3067 11.6133 30.92 12.84 30.92C14.4667 30.92 16.52 31.5733 19 32.88L19.84 33.32C20.2667 32.12 20.6667 30.7867 21.04 29.32C20.88 29.48 20.6933 29.64 20.48 29.8C20.2933 29.96 20.0933 30.1467 19.88 30.36C19.32 30.04 19.04 29.5733 19.04 28.96C19.04 28.72 19.1467 28.44 19.36 28.12C19.5733 27.7733 19.8 27.5867 20.04 27.56C20.28 28.4133 20.64 28.8667 21.12 28.92C22.56 23.08 23.28 18.56 23.28 15.36C23.28 14.4533 23.24 13.6267 23.16 12.88C21.4533 12.9867 19.88 13.1733 18.44 13.44C17 13.68 15.7067 13.9867 14.56 14.36C11.36 15.4 9.76 16.8 9.76 18.56C9.76 20.1867 11.24 21.6 14.2 22.8C14.2 22.8 14.2267 22.8267 14.28 22.88C14.28 22.96 14.1333 23 13.84 23C12.9867 23 11.8533 22.44 10.44 21.32C9.02667 20.1467 8.32 19.0133 8.32 17.92C8.32 15.6533 10.3867 13.9333 14.52 12.76C15.7733 12.3867 17.0933 12.0933 18.48 11.88C19.8933 11.6667 21.3733 11.5067 22.92 11.4C22.36 8.65333 21.1867 7.28 19.4 7.28H18.84C19.5867 7.6 19.96 8.17333 19.96 9C19.96 9.77333 19.7067 10.28 19.2 10.52C18.96 9 18.1733 8.25333 16.84 8.28C17.2667 7.32 18.1067 6.84 19.36 6.84C21.5467 6.84 22.9867 8.34667 23.68 11.36C24.0267 11.3333 24.3733 11.32 24.72 11.32C25.0667 11.32 25.4133 11.32 25.76 11.32C27.3067 11.32 28.8 11.4 30.24 11.56C32.32 9.08 34.4267 7.84 36.56 7.84C37.2 7.84 37.8533 8.08 38.52 8.56C39.1867 8.96 39.52 9.48 39.52 10.12C39.52 10.6 39.4 10.84 39.16 10.84C39.08 10.84 38.7333 10.4533 38.12 9.68C37.56 8.88 36.8267 8.48 35.92 8.48C35.0667 8.48 34.2533 8.76 33.48 9.32C32.7067 9.88 32 10.68 31.36 11.72C40.6933 13.08 45.36 17.3067 45.36 24.4C45.36 28.0267 43.9067 31.16 41 33.8C38.0933 36.4667 34.84 37.8 31.24 37.8C28.68 37.8 25.9067 37.2533 22.92 36.16C21.8 37.5733 20.5467 38.6667 19.16 39.44C17.7733 40.2133 16.2533 40.6 14.6 40.6H14.48C13.4933 40.6 13 40.2 13 39.4C13 38.76 13.1867 38.44 13.56 38.44C13.6133 38.44 13.96 38.68 14.6 39.16C15.24 39.64 15.8667 39.88 16.48 39.88C18.0533 39.88 19.6 38.4 21.12 35.44L19.68 34.84L19.24 35.84C19.16 36.0267 19.08 36.12 19 36.12C18.8933 36.12 18.84 36.0267 18.84 35.84C18.84 35.8133 18.9867 35.4267 19.28 34.68C18.08 34.2267 16.9733 33.84 15.96 33.52C14.9733 33.2 14.0533 32.96 13.2 32.8C12.9067 32.7467 12.6267 32.7067 12.36 32.68C12.12 32.6533 11.8933 32.64 11.68 32.64C9.73333 32.64 8.76 33.4667 8.76 35.12C8.76 37.1467 9.92 38.92 12.24 40.44C12.5067 40.6267 12.8 40.7867 13.12 40.92C13.44 41.08 13.8 41.2533 14.2 41.44C14.28 41.44 14.3333 41.48 14.36 41.56C14.36 41.5867 14.32 41.6 14.24 41.6ZM21.64 34.28C22.3333 32.7867 23 31.0133 23.64 28.96C24.28 26.88 24.8933 24.5467 25.48 21.96C25.9067 20.2 26.4267 18.56 27.04 17.04C27.68 15.52 28.4133 14.1467 29.24 12.92C28.68 12.8667 28.12 12.8267 27.56 12.8C27 12.7733 26.4267 12.76 25.84 12.76C25.5733 12.76 25.28 12.7733 24.96 12.8C24.64 12.8 24.2933 12.8133 23.92 12.84C23.9733 13.2667 24.0133 13.7333 24.04 14.24C24.0933 14.7467 24.12 15.2667 24.12 15.8C24.12 18.1467 23.9067 20.2133 23.48 22C22.9467 24.3733 22.4 26.52 21.84 28.44C21.3067 30.36 20.7467 32.04 20.16 33.48L21.64 34.28ZM31.24 37.32C34.68 37.32 37.5733 36.12 39.92 33.72C42.32 31.3467 43.52 28.44 43.52 25C43.52 18.2533 39.2267 14.28 30.64 13.08C30.1333 14.1467 29.6133 15.4533 29.08 17C28.5467 18.5467 28.0267 20.3333 27.52 22.36L25.4 31.08C25.2133 31.8267 24.96 32.5467 24.64 33.24C24.3467 33.9067 23.9867 34.5467 23.56 35.16C26.7333 36.6 29.2933 37.32 31.24 37.32Z" fill="url(#paint2_linear_25_14)" fill-opacity="0.92"/>
<defs>
<linearGradient id="paint0_linear_25_14" x1="25" y1="0" x2="25" y2="50" gradientUnits="userSpaceOnUse">
<stop stop-color="white"/>
<stop offset="1" stop-color="white"/>
</linearGradient>
<linearGradient id="paint1_linear_25_14" x1="25" y1="0" x2="25" y2="50" gradientUnits="userSpaceOnUse">
<stop stop-color="#A8A2F4"/>
<stop offset="0.505208" stop-color="#6F79D8"/>
<stop offset="1" stop-color="#5E56DA"/>
</linearGradient>
<linearGradient id="paint2_linear_25_14" x1="22.5" y1="3.5" x2="24" y2="48" gradientUnits="userSpaceOnUse">
<stop stop-color="#645CED"/>
<stop offset="0.453125" stop-color="#ACA6FA"/>
<stop offset="0.604167" stop-color="#C791FD"/>
<stop offset="1" stop-color="#5E56DA"/>
</linearGradient>
</defs>
</svg>
